<svg width="256" height="60" viewBox="0 0 256 60" fill="none" xmlns="http://www.w3.org/2000/svg">
<rect width="256" height="60" rx="6" fill="#7799CC"/>
<path d="M97.98 37V21.38H107.33V23.822H100.818V27.914H106.076V30.356H100.818V34.558H107.682V37H97.98ZM110.194 37V25.78H112.878V27.078C112.878 27.496 112.834 27.848 112.834 27.848H112.878C113.362 26.902 114.594 25.516 116.86 25.516C119.346 25.516 120.754 26.814 120.754 29.784V37H117.982V30.356C117.982 28.992 117.63 28.068 116.2 28.068C114.704 28.068 113.604 29.014 113.186 30.356C113.032 30.818 112.988 31.324 112.988 31.852V37H110.194ZM126.216 37L122.146 25.78H125.094L127.426 32.732C127.646 33.392 127.8 34.426 127.822 34.426H127.866C127.888 34.426 128.042 33.392 128.262 32.732L130.594 25.78H133.542L129.516 37H126.216ZM135.095 23.866V21.38H137.867V23.866H135.095ZM135.095 37V25.78H137.889V37H135.095ZM140.014 33.766C140.014 30.202 144.832 29.96 146.658 29.96H147.032V29.806C147.032 28.332 146.108 27.826 144.876 27.826C143.27 27.826 141.796 28.904 141.796 28.904L140.74 26.902C140.74 26.902 142.478 25.516 145.14 25.516C148.088 25.516 149.804 27.144 149.804 29.982V37H147.23V36.076C147.23 35.636 147.274 35.284 147.274 35.284H147.23C147.252 35.284 146.372 37.264 143.82 37.264C141.818 37.264 140.014 36.01 140.014 33.766ZM142.83 33.634C142.83 34.382 143.38 35.086 144.524 35.086C145.998 35.086 147.054 33.502 147.054 32.138V31.874H146.57C145.14 31.874 142.83 32.072 142.83 33.634ZM152.712 37V25.78H155.396V27.716C155.396 28.134 155.352 28.508 155.352 28.508H155.396C155.902 26.902 157.244 25.626 158.96 25.626C159.224 25.626 159.466 25.67 159.466 25.67V28.42C159.466 28.42 159.18 28.376 158.806 28.376C157.618 28.376 156.276 29.058 155.748 30.73C155.572 31.28 155.506 31.896 155.506 32.556V37H152.712Z" fill="white"/>
</svg>
