<svg width="125" height="125" viewBox="0 0 125 125" fill="none" xmlns="http://www.w3.org/2000/svg">
<circle cx="62.5" cy="62.5" r="62.5" fill="#7799CC"/>
<path d="M91.736 31.25H77.8516L79.5907 48.6416C79.5907 48.6416 83.069 52.1199 88.2865 52.1199C92.0327 52.1199 94.5833 50.3267 95.7242 49.3154C96.1789 48.9123 96.3451 48.297 96.2453 47.6976L93.7945 32.9939C93.6268 31.9876 92.7562 31.25 91.736 31.25Z" stroke="white" stroke-width="3"/>
<path d="M77.8517 31.25L79.5908 48.6416C79.5908 48.6416 76.1125 52.1199 70.895 52.1199C65.6775 52.1199 62.1992 48.6416 62.1992 48.6416V31.25H77.8517Z" stroke="white" stroke-width="3"/>
<path d="M62.1993 31.25V48.6416C62.1993 48.6416 58.721 52.1199 53.5034 52.1199C48.2859 52.1199 44.8076 48.6416 44.8076 48.6416L46.5468 31.25H62.1993Z" stroke="white" stroke-width="3"/>
<path d="M46.5467 31.25H32.6622C31.642 31.25 30.7713 31.9876 30.6036 32.9939L28.153 47.6977C28.0531 48.297 28.2195 48.9123 28.6741 49.3154C29.8147 50.3267 32.3654 52.1199 36.1117 52.1199C41.3292 52.1199 44.8076 48.6416 44.8076 48.6416L46.5467 31.25Z" stroke="white" stroke-width="3"/>
<path d="M30.918 52.1199V86.9032C30.918 90.7453 34.0326 93.8598 37.8746 93.8598H86.5712C90.4133 93.8598 93.5278 90.7453 93.5278 86.9032V52.1199" stroke="white" stroke-width="3"/>
<path d="M72.0779 93.8599V72.9899C72.0779 69.1478 68.9634 66.0333 65.1213 66.0333H58.1646C54.3226 66.0333 51.208 69.1478 51.208 72.9899V93.8599" stroke="white" stroke-width="3" stroke-miterlimit="16"/>
</svg>
